<svg xmlns="http://www.w3.org/2000/svg" viewBox="0 0 64 64">
  <rect width="64" height="64" rx="14" fill="#0f1826"/>
  <rect x="7" y="20" width="50" height="26" rx="5" fill="#1f5fa8"/>
  <rect x="14" y="20" width="38" height="5" fill="#c8102e"/>
  <rect x="13" y="25" width="40" height="19" fill="#151515"/>
  <g fill="#f3ead8"><rect x="14" y="26" width="7" height="17" rx="1.2"/><rect x="22" y="26" width="7" height="17" rx="1.2"/><rect x="30" y="26" width="7" height="17" rx="1.2"/><rect x="38" y="26" width="7" height="17" rx="1.2"/><rect x="46" y="26" width="6" height="17" rx="1.2"/></g>
  <g fill="#151515"><rect x="19" y="26" width="4" height="10" rx="1"/><rect x="27" y="26" width="4" height="10" rx="1"/><rect x="43" y="26" width="4" height="10" rx="1"/></g>
  <circle cx="10.5" cy="37" r="2.4" fill="#cfd6dd" stroke="#8a949f" stroke-width="1"/>
  <circle cx="33.5" cy="40" r="2.6" fill="#f59e0b" stroke="#0b1220" stroke-width=".6"/>
  <circle cx="41.5" cy="40" r="2.6" fill="#22c55e" stroke="#0b1220" stroke-width=".6"/>
</svg>
